<svg xmlns="http://www.w3.org/2000/svg" width="1180" height="610" viewBox="0 0 1180 610" fill="none" role="img" aria-label="Serhii Yakovenko — Full-Stack Developer">
  <title>Serhii Yakovenko — Full-Stack Developer</title>
  <defs>
    <clipPath id="round"><rect x="0" y="0" width="1180" height="610" rx="28"/></clipPath>
    <clipPath id="leftClip"><rect x="28" y="28" width="420" height="554" rx="20"/></clipPath>

    <linearGradient id="accent" gradientUnits="userSpaceOnUse" x1="480" y1="60" x2="1120" y2="560" spreadMethod="reflect">
      <stop offset="0" stop-color="#7C3AED"/>
      <stop offset="0.5" stop-color="#22D3EE"/>
      <stop offset="1" stop-color="#10B981"/>
      <animateTransform attributeName="gradientTransform" type="translate" values="-120,0; 120,0; -120,0" dur="9s" repeatCount="indefinite"/>
    </linearGradient>

    <linearGradient id="ascii" gradientUnits="userSpaceOnUse" x1="120" y1="150" x2="360" y2="470" spreadMethod="reflect">
      <stop offset="0" stop-color="#22D3EE"/>
      <stop offset="0.45" stop-color="#818CF8"/>
      <stop offset="0.75" stop-color="#A855F7"/>
      <stop offset="1" stop-color="#22D3EE"/>
      <animateTransform attributeName="gradientTransform" type="translate" values="0,0; 70,90; 0,0" dur="6s" repeatCount="indefinite"/>
    </linearGradient>

    <linearGradient id="nameGrad" gradientUnits="userSpaceOnUse" x1="500" y1="150" x2="960" y2="185" spreadMethod="reflect">
      <stop offset="0" stop-color="#F8FAFC"/>
      <stop offset="0.5" stop-color="#C7D2FE"/>
      <stop offset="1" stop-color="#F8FAFC"/>
      <animateTransform attributeName="gradientTransform" type="translate" values="-80,0; 80,0; -80,0" dur="7s" repeatCount="indefinite"/>
    </linearGradient>

    <linearGradient id="glass" x1="0" y1="0" x2="0" y2="1">
      <stop offset="0" stop-color="#FFFFFF" stop-opacity="0.10"/>
      <stop offset="0.12" stop-color="#FFFFFF" stop-opacity="0.03"/>
      <stop offset="1" stop-color="#FFFFFF" stop-opacity="0"/>
    </linearGradient>

    <linearGradient id="reflect" x1="0" y1="0" x2="1" y2="1">
      <stop offset="0" stop-color="#FFFFFF" stop-opacity="0.14"/>
      <stop offset="0.5" stop-color="#FFFFFF" stop-opacity="0"/>
    </linearGradient>

    <linearGradient id="scan" x1="0" y1="0" x2="0" y2="1">
      <stop offset="0" stop-color="#22D3EE" stop-opacity="0"/>
      <stop offset="0.5" stop-color="#22D3EE" stop-opacity="0.10"/>
      <stop offset="1" stop-color="#22D3EE" stop-opacity="0"/>
    </linearGradient>

    <radialGradient id="glowBlue" cx="0.5" cy="0.5" r="0.5">
      <stop offset="0" stop-color="#3B82F6" stop-opacity="0.55"/>
      <stop offset="1" stop-color="#3B82F6" stop-opacity="0"/>
    </radialGradient>
    <radialGradient id="glowViolet" cx="0.5" cy="0.5" r="0.5">
      <stop offset="0" stop-color="#7C3AED" stop-opacity="0.5"/>
      <stop offset="1" stop-color="#7C3AED" stop-opacity="0"/>
    </radialGradient>
    <radialGradient id="glowEmerald" cx="0.5" cy="0.5" r="0.5">
      <stop offset="0" stop-color="#10B981" stop-opacity="0.4"/>
      <stop offset="1" stop-color="#10B981" stop-opacity="0"/>
    </radialGradient>

    <filter id="noise"><feTurbulence type="fractalNoise" baseFrequency="0.9" numOctaves="2" stitchTiles="stitch"/><feColorMatrix type="saturate" values="0"/></filter>
    <filter id="glowSoft" x="-40%" y="-40%" width="180%" height="180%"><feGaussianBlur stdDeviation="3.4" result="b"/><feMerge><feMergeNode in="b"/><feMergeNode in="SourceGraphic"/></feMerge></filter>
    <filter id="shadow" x="-30%" y="-30%" width="160%" height="160%"><feDropShadow dx="0" dy="12" stdDeviation="22" flood-color="#000000" flood-opacity="0.5"/></filter>
    <filter id="softBlur"><feGaussianBlur stdDeviation="42"/></filter>

    <clipPath id="rc0"><rect x="500" y="190" width="260" height="34"><animate attributeName="width" values="260;260;0;0;260" keyTimes="0;0.1;0.15;0.9;1" dur="12s" repeatCount="indefinite"/></rect></clipPath>
    <clipPath id="rc1"><rect x="500" y="190" width="0" height="34"><animate attributeName="width" values="0;0;299;299;0;0" keyTimes="0;0.15;0.25;0.35;0.4;1" dur="12s" repeatCount="indefinite"/></rect></clipPath>
    <clipPath id="rc2"><rect x="500" y="190" width="0" height="34"><animate attributeName="width" values="0;0;143;143;0;0" keyTimes="0;0.4;0.5;0.6;0.65;1" dur="12s" repeatCount="indefinite"/></rect></clipPath>
    <clipPath id="rc3"><rect x="500" y="190" width="0" height="34"><animate attributeName="width" values="0;0;221;221;0;0" keyTimes="0;0.65;0.75;0.85;0.9;1" dur="12s" repeatCount="indefinite"/></rect></clipPath>

    <style>
      .pill:hover { transform: scale(1.06); }
      .pill { transform-box: fill-box; transform-origin: center; transition: transform .2s ease; }
    </style>
  </defs>

  <g clip-path="url(#round)">
    <rect x="0" y="0" width="1180" height="610" fill="#030712"/>

    <g filter="url(#softBlur)">
      <circle cx="250" cy="140" r="150" fill="url(#glowViolet)">
        <animateTransform attributeName="transform" type="translate" values="0,0; 30,40; 0,0" dur="12s" repeatCount="indefinite"/>
      </circle>
      <circle cx="980" cy="120" r="170" fill="url(#glowBlue)">
        <animateTransform attributeName="transform" type="translate" values="0,0; -40,30; 0,0" dur="14s" repeatCount="indefinite"/>
      </circle>
      <circle cx="820" cy="560" r="160" fill="url(#glowEmerald)">
        <animateTransform attributeName="transform" type="translate" values="0,0; 20,-30; 0,0" dur="16s" repeatCount="indefinite"/>
      </circle>
    </g>

    <rect x="0" y="0" width="1180" height="610" filter="url(#noise)" opacity="0.05"/>

    <g fill="#93C5FD">
      <circle cx="140" cy="470" r="1.6"><animate attributeName="opacity" values="0.1;0.7;0.1" dur="4s" repeatCount="indefinite"/><animateTransform attributeName="transform" type="translate" values="0,0;0,-16;0,0" dur="8s" repeatCount="indefinite"/></circle>
      <circle cx="360" cy="90" r="1.3"><animate attributeName="opacity" values="0.2;0.8;0.2" dur="5s" repeatCount="indefinite"/><animateTransform attributeName="transform" type="translate" values="0,0;8,12;0,0" dur="9s" repeatCount="indefinite"/></circle>
      <circle cx="700" cy="520" r="1.5"><animate attributeName="opacity" values="0.1;0.6;0.1" dur="6s" repeatCount="indefinite"/><animateTransform attributeName="transform" type="translate" values="0,0;-10,-10;0,0" dur="10s" repeatCount="indefinite"/></circle>
      <circle cx="1080" cy="300" r="1.4"><animate attributeName="opacity" values="0.15;0.75;0.15" dur="4.5s" repeatCount="indefinite"/><animateTransform attributeName="transform" type="translate" values="0,0;0,18;0,0" dur="11s" repeatCount="indefinite"/></circle>
      <circle cx="520" cy="70" r="1.2"><animate attributeName="opacity" values="0.1;0.6;0.1" dur="5.5s" repeatCount="indefinite"/></circle>
      <circle cx="90" cy="260" r="1.3"><animate attributeName="opacity" values="0.2;0.7;0.2" dur="7s" repeatCount="indefinite"/><animateTransform attributeName="transform" type="translate" values="0,0;6,-14;0,0" dur="12s" repeatCount="indefinite"/></circle>
      <circle cx="960" cy="480" r="1.5"><animate attributeName="opacity" values="0.1;0.65;0.1" dur="6.5s" repeatCount="indefinite"/></circle>
    </g>

    <rect x="0" y="-140" width="1180" height="140" fill="url(#scan)" opacity="0.5">
      <animate attributeName="y" values="-140;610" dur="7s" repeatCount="indefinite"/>
    </rect>

    <!-- ============ LEFT PANEL ============ -->
    <g filter="url(#shadow)">
      <rect x="28" y="28" width="420" height="554" rx="20" fill="#0F172A" fill-opacity="0.62"/>
    </g>
    <rect x="28" y="28" width="420" height="554" rx="20" fill="url(#glass)"/>
    <rect x="28.75" y="28.75" width="418.5" height="552.5" rx="19.25" fill="none" stroke="#FFFFFF" stroke-opacity="0.08"/>
    <path d="M40 28 H436 A20 20 0 0 1 448 40 V150 Q240 120 40 200 Z" fill="url(#reflect)" opacity="0.5"/>

    <text x="52" y="66" font-family="ui-monospace, 'SF Mono', 'JetBrains Mono', Menlo, monospace" font-size="12" letter-spacing="1.5" fill="#22D3EE" opacity="0.85">◉ ~/self.render</text>

    <g clip-path="url(#leftClip)">
      <rect x="28" y="60" width="420" height="52" fill="url(#scan)">
        <animate attributeName="y" values="60;520;60" dur="4.5s" repeatCount="indefinite"/>
      </rect>

      <g>
        <animateTransform attributeName="transform" type="translate" values="0,-5; 0,5; 0,-5" dur="6s" repeatCount="indefinite"/>
        <g font-family="ui-monospace, 'SF Mono', 'JetBrains Mono', Menlo, monospace" font-size="13" letter-spacing="1" text-anchor="middle" fill="url(#ascii)" filter="url(#glowSoft)">
          <text x="238" y="178">.:=++++=:.</text>
          <text x="238" y="193">:=*%@@@@@@%*=:</text>
          <text x="238" y="208">-*@@@@@@@@@@@@*-</text>
          <text x="238" y="223">=@@@@@@@@@@@@@@@@=</text>
          <text x="238" y="238">+@@@@@@@@@@@@@@@@@@+</text>
          <text x="238" y="253">#@@@@@@@@@@@@@@@@@@#</text>
          <text x="238" y="268">%@@@@@@@@@@@@@@@@@@%</text>
          <text x="238" y="283">%@@@@@@@@@@@@@@@@@@%</text>
          <text x="238" y="298">+@@@@@@@@@@@@@@@@@@+</text>
          <text x="238" y="313">-#@@@@@@@@@@@@@@@@#-</text>
          <text x="238" y="328">=%@@@@@@@@@@@@@@%=</text>
          <text x="238" y="343">.=*%@@@@@@@@%*=.</text>
          <text x="238" y="358">.:=+*#%@@@@%#*+=:.</text>
          <text x="238" y="373">:+#%@@@@@@@@@@%#+:</text>
          <text x="238" y="388">*@@@@@@@@@@@@@@@@@@*</text>
          <text x="238" y="403">%@@@@@@@@@@@@@@@@@@@@%</text>
          <text x="238" y="418">@@@@@@@@@@@@@@@@@@@@@@</text>
          <text x="238" y="433">~~~~~~~~~~~~~~~~~~~~~~</text>
        </g>
        <rect x="232" y="440" width="12" height="15" fill="#22D3EE" filter="url(#glowSoft)">
          <animate attributeName="opacity" values="1;1;0;0" keyTimes="0;0.5;0.51;1" dur="1.1s" repeatCount="indefinite"/>
        </rect>
      </g>
    </g>

    <text x="238" y="548" font-family="ui-monospace, 'SF Mono', Menlo, monospace" font-size="11" letter-spacing="2" text-anchor="middle" fill="#94A3B8" opacity="0.7">C O D E &#160;·&#160; C R E A T E &#160;·&#160; S H I P</text>

    <!-- ============ RIGHT PANEL ============ -->
    <g filter="url(#shadow)">
      <rect x="472" y="28" width="680" height="554" rx="20" fill="#0F172A" fill-opacity="0.62"/>
    </g>
    <rect x="472" y="28" width="680" height="554" rx="20" fill="url(#glass)"/>
    <rect x="472.75" y="28.75" width="678.5" height="552.5" rx="19.25" fill="none" stroke="#FFFFFF" stroke-opacity="0.08"/>
    <path d="M484 28 H1140 A20 20 0 0 1 1152 40 V132 Q812 104 484 176 Z" fill="url(#reflect)" opacity="0.45"/>

    <circle cx="502" cy="52" r="6" fill="#FF5F56"/>
    <circle cx="522" cy="52" r="6" fill="#FFBD2E"/>
    <circle cx="542" cy="52" r="6" fill="#27C93F"/>
    <text x="812" y="57" font-family="ui-monospace, 'SF Mono', Menlo, monospace" font-size="13" text-anchor="middle" fill="#94A3B8">serhii@yakovenko: ~/dev</text>
    <line x1="472" y1="78" x2="1152" y2="78" stroke="#FFFFFF" stroke-opacity="0.08"/>

    <text x="502" y="122" font-family="ui-sans-serif, 'Inter', system-ui, sans-serif" font-size="17" fill="#94A3B8">Hi <tspan>👋</tspan>&#160;&#160;I'm</text>
    <text x="500" y="170" font-family="ui-sans-serif, 'Inter', system-ui, sans-serif" font-weight="800" font-size="42" fill="url(#nameGrad)" filter="url(#glowSoft)">Serhii Yakovenko</text>

    <g font-family="ui-monospace, 'SF Mono', 'JetBrains Mono', Menlo, monospace" font-size="22" font-weight="600" fill="url(#accent)">
      <g clip-path="url(#rc0)"><text x="500" y="212">Full-Stack Developer</text></g>
      <g clip-path="url(#rc1)"><text x="500" y="212">Open Source Contributor</text></g>
      <g clip-path="url(#rc2)"><text x="500" y="212">UI Engineer</text></g>
      <g clip-path="url(#rc3)"><text x="500" y="212">Frontend Engineer</text></g>
    </g>
    <rect x="760" y="195" width="12" height="24" fill="#22D3EE" filter="url(#glowSoft)">
      <animate attributeName="x" values="760;799;643;721;760" keyTimes="0;0.15;0.4;0.65;0.9" calcMode="discrete" dur="12s" repeatCount="indefinite"/>
      <animate attributeName="opacity" values="1;1;0;0" dur="1s" repeatCount="indefinite"/>
    </rect>

    <line x1="502" y1="240" x2="1122" y2="240" stroke="#FFFFFF" stroke-opacity="0.06"/>

    <g font-family="ui-sans-serif, 'Inter', system-ui, sans-serif" font-size="15">
      <g>
        <text x="502" y="278" font-size="15">📍</text>
        <text x="534" y="278" fill="#F8FAFC" font-weight="600">Location</text>
        <text x="690" y="278" font-family="ui-monospace, Menlo, monospace" font-size="14" fill="#94A3B8">Ukraine</text>
      </g>
      <g>
        <text x="502" y="311" font-size="15">🎓</text>
        <text x="534" y="311" fill="#F8FAFC" font-weight="600">Education</text>
        <text x="690" y="311" font-family="ui-monospace, Menlo, monospace" font-size="14" fill="#94A3B8">Self-taught Engineer</text>
      </g>
      <g>
        <text x="502" y="344" font-size="15">🚀</text>
        <text x="534" y="344" fill="#F8FAFC" font-weight="600">Focus</text>
        <text x="690" y="344" font-family="ui-monospace, Menlo, monospace" font-size="14" fill="#94A3B8">NestJS · Prisma · Postgres</text>
      </g>
      <g>
        <text x="502" y="377" font-size="15">🌐</text>
        <text x="534" y="377" fill="#F8FAFC" font-weight="600">Portfolio</text>
        <text x="690" y="377" font-family="ui-monospace, Menlo, monospace" font-size="14" fill="#22D3EE">book-nest.net</text>
      </g>
      <g>
        <text x="502" y="410" font-size="15">✉️</text>
        <text x="534" y="410" fill="#F8FAFC" font-weight="600">Email</text>
        <text x="690" y="410" font-family="ui-monospace, Menlo, monospace" font-size="14" fill="#94A3B8">yakovenko.sergey.work@gmail.com</text>
      </g>
    </g>

    <text x="502" y="448" font-family="ui-monospace, 'SF Mono', Menlo, monospace" font-size="12" letter-spacing="1.5" fill="#94A3B8">// stack</text>

    <g font-family="ui-sans-serif, 'Inter', system-ui, sans-serif" font-size="13" font-weight="500" text-anchor="middle" fill="#E2E8F0">
      <g class="pill"><rect x="502" y="458" width="66" height="30" rx="15" fill="#7C3AED" fill-opacity="0.12" stroke="url(#accent)" stroke-opacity="0.55"><animate attributeName="stroke-opacity" values="0.35;0.75;0.35" dur="4s" repeatCount="indefinite"/></rect><text x="535" y="477">React</text></g>
      <g class="pill"><rect x="578" y="458" width="76" height="30" rx="15" fill="#7C3AED" fill-opacity="0.12" stroke="url(#accent)" stroke-opacity="0.55"><animate attributeName="stroke-opacity" values="0.35;0.75;0.35" dur="4.3s" repeatCount="indefinite"/></rect><text x="616" y="477">Next.js</text></g>
      <g class="pill"><rect x="664" y="458" width="96" height="30" rx="15" fill="#7C3AED" fill-opacity="0.12" stroke="url(#accent)" stroke-opacity="0.55"><animate attributeName="stroke-opacity" values="0.35;0.75;0.35" dur="4.6s" repeatCount="indefinite"/></rect><text x="712" y="477">TypeScript</text></g>
      <g class="pill"><rect x="770" y="458" width="78" height="30" rx="15" fill="#7C3AED" fill-opacity="0.12" stroke="url(#accent)" stroke-opacity="0.55"><animate attributeName="stroke-opacity" values="0.35;0.75;0.35" dur="4.1s" repeatCount="indefinite"/></rect><text x="809" y="477">Node.js</text></g>
      <g class="pill"><rect x="858" y="458" width="74" height="30" rx="15" fill="#7C3AED" fill-opacity="0.12" stroke="url(#accent)" stroke-opacity="0.55"><animate attributeName="stroke-opacity" values="0.35;0.75;0.35" dur="4.4s" repeatCount="indefinite"/></rect><text x="895" y="477">NestJS</text></g>

      <g class="pill"><rect x="502" y="496" width="82" height="30" rx="15" fill="#22D3EE" fill-opacity="0.10" stroke="url(#accent)" stroke-opacity="0.55"><animate attributeName="stroke-opacity" values="0.35;0.75;0.35" dur="4.2s" repeatCount="indefinite"/></rect><text x="543" y="515">Tailwind</text></g>
      <g class="pill"><rect x="594" y="496" width="70" height="30" rx="15" fill="#22D3EE" fill-opacity="0.10" stroke="url(#accent)" stroke-opacity="0.55"><animate attributeName="stroke-opacity" values="0.35;0.75;0.35" dur="4.5s" repeatCount="indefinite"/></rect><text x="629" y="515">Prisma</text></g>
      <g class="pill"><rect x="674" y="496" width="100" height="30" rx="15" fill="#22D3EE" fill-opacity="0.10" stroke="url(#accent)" stroke-opacity="0.55"><animate attributeName="stroke-opacity" values="0.35;0.75;0.35" dur="4.7s" repeatCount="indefinite"/></rect><text x="724" y="515">PostgreSQL</text></g>
      <g class="pill"><rect x="784" y="496" width="72" height="30" rx="15" fill="#22D3EE" fill-opacity="0.10" stroke="url(#accent)" stroke-opacity="0.55"><animate attributeName="stroke-opacity" values="0.35;0.75;0.35" dur="4.0s" repeatCount="indefinite"/></rect><text x="820" y="515">Docker</text></g>
      <g class="pill"><rect x="866" y="496" width="120" height="30" rx="15" fill="#22D3EE" fill-opacity="0.10" stroke="url(#accent)" stroke-opacity="0.55"><animate attributeName="stroke-opacity" values="0.35;0.75;0.35" dur="4.8s" repeatCount="indefinite"/></rect><text x="926" y="515">TanStack Query</text></g>
    </g>

    <g>
      <g stroke="url(#accent)" stroke-width="1.6" fill="none" filter="url(#glowSoft)">
        <rect x="502" y="540" width="34" height="34" rx="10" stroke-opacity="0.5"/>
        <rect x="546" y="540" width="34" height="34" rx="10" stroke-opacity="0.5"/>
        <rect x="590" y="540" width="34" height="34" rx="10" stroke-opacity="0.5"/>
        <rect x="634" y="540" width="34" height="34" rx="10" stroke-opacity="0.5"/>
      </g>
      <g fill="#E2E8F0">
        <path transform="translate(511,549)" d="M8 0C3.6 0 0 3.6 0 8c0 3.5 2.3 6.5 5.5 7.6.4.1.5-.2.5-.4v-1.4c-2.2.5-2.7-1-2.7-1-.4-.9-.9-1.2-.9-1.2-.7-.5.1-.5.1-.5.8.1 1.2.8 1.2.8.7 1.2 1.9.9 2.4.7.1-.5.3-.9.5-1.1-1.8-.2-3.6-.9-3.6-3.9 0-.9.3-1.6.8-2.1-.1-.2-.4-1 .1-2.1 0 0 .7-.2 2.2.8.6-.2 1.3-.3 2-.3.7 0 1.4.1 2 .3 1.5-1 2.2-.8 2.2-.8.5 1.1.2 1.9.1 2.1.5.5.8 1.2.8 2.1 0 3-1.8 3.7-3.6 3.9.3.3.6.8.6 1.6v2.4c0 .2.1.5.6.4C13.7 14.5 16 11.5 16 8c0-4.4-3.6-8-8-8z"/>
        <path transform="translate(555,549)" d="M2 0C.9 0 0 .9 0 2s.9 2 2 2 2-.9 2-2-.9-2-2-2zM.3 5.5h3.4V16H.3V5.5zM6 5.5h3.3v1.4h.1c.5-.9 1.6-1.8 3.2-1.8 3.4 0 4 2.2 4 5.2V16h-3.4v-4.6c0-1.1 0-2.5-1.6-2.5-1.6 0-1.8 1.2-1.8 2.4V16H6V5.5z"/>
        <path transform="translate(599,550)" d="M15.6.6 13.3 15c-.2.9-.7 1.1-1.4.7l-3.9-2.9-1.9 1.8c-.2.2-.4.4-.8.4l.3-4 7.3-6.6c.3-.3-.1-.4-.5-.2L3.3 8.9-.3 7.7c-.8-.2-.8-.8.2-1.2L14.6-.4c.7-.2 1.3.2 1 1z"/>
        <g transform="translate(642,548)" stroke="#E2E8F0" stroke-width="1.4" fill="none"><circle cx="9" cy="9" r="8.2"/><ellipse cx="9" cy="9" rx="3.4" ry="8.2"/><line x1="1" y1="9" x2="17" y2="9"/></g>
      </g>
    </g>

    <rect x="1" y="1" width="1178" height="608" rx="27" fill="none" stroke="url(#accent)" stroke-opacity="0.45" stroke-width="1.5"/>
    <rect x="1" y="1" width="1178" height="608" rx="27" fill="none" stroke="#FFFFFF" stroke-opacity="0.6" stroke-width="2" stroke-dasharray="90 3486" stroke-linecap="round">
      <animate attributeName="stroke-dashoffset" values="3576;0" dur="6s" repeatCount="indefinite"/>
    </rect>
  </g>
</svg>
